<svg width="48" height="31" viewBox="0 0 48 31" fill="none" xmlns="http://www.w3.org/2000/svg">
<path opacity="0.5" d="M0.666672 0V23.3333C0.666672 25.1898 1.40417 26.9703 2.71692 28.2831C4.02968 29.5958 5.81016 30.3333 7.66667 30.3333H40.3333C42.1899 30.3333 43.9703 29.5958 45.2831 28.2831C46.5958 26.9703 47.3333 25.1898 47.3333 23.3333V0H0.666672ZM12.3333 21C11.7145 21 11.121 20.7542 10.6834 20.3166C10.2458 19.879 10 19.2855 10 18.6667C10 18.0478 10.2458 17.4543 10.6834 17.0168C11.121 16.5792 11.7145 16.3333 12.3333 16.3333C12.9522 16.3333 13.5457 16.5792 13.9833 17.0168C14.4208 17.4543 14.6667 18.0478 14.6667 18.6667C14.6667 19.2855 14.4208 19.879 13.9833 20.3166C13.5457 20.7542 12.9522 21 12.3333 21ZM12.3333 11.6667C11.7145 11.6667 11.121 11.4208 10.6834 10.9832C10.2458 10.5457 10 9.95217 10 9.33333C10 8.7145 10.2458 8.121 10.6834 7.68342C11.121 7.24583 11.7145 7 12.3333 7C12.9522 7 13.5457 7.24583 13.9833 7.68342C14.4208 8.121 14.6667 8.7145 14.6667 9.33333C14.6667 9.95217 14.4208 10.5457 13.9833 10.9832C13.5457 11.4208 12.9522 11.6667 12.3333 11.6667ZM24 21C23.3812 21 22.7877 20.7542 22.3501 20.3166C21.9125 19.879 21.6667 19.2855 21.6667 18.6667C21.6667 18.0478 21.9125 17.4543 22.3501 17.0168C22.7877 16.5792 23.3812 16.3333 24 16.3333C24.6188 16.3333 25.2123 16.5792 25.6499 17.0168C26.0875 17.4543 26.3333 18.0478 26.3333 18.6667C26.3333 19.2855 26.0875 19.879 25.6499 20.3166C25.2123 20.7542 24.6188 21 24 21ZM24 11.6667C23.3812 11.6667 22.7877 11.4208 22.3501 10.9832C21.9125 10.5457 21.6667 9.95217 21.6667 9.33333C21.6667 8.7145 21.9125 8.121 22.3501 7.68342C22.7877 7.24583 23.3812 7 24 7C24.6188 7 25.2123 7.24583 25.6499 7.68342C26.0875 8.121 26.3333 8.7145 26.3333 9.33333C26.3333 9.95217 26.0875 10.5457 25.6499 10.9832C25.2123 11.4208 24.6188 11.6667 24 11.6667ZM35.6667 21C35.0478 21 34.4543 20.7542 34.0168 20.3166C33.5792 19.879 33.3333 19.2855 33.3333 18.6667C33.3333 18.0478 33.5792 17.4543 34.0168 17.0168C34.4543 16.5792 35.0478 16.3333 35.6667 16.3333C36.2855 16.3333 36.879 16.5792 37.3166 17.0168C37.7542 17.4543 38 18.0478 38 18.6667C38 19.2855 37.7542 19.879 37.3166 20.3166C36.879 20.7542 36.2855 21 35.6667 21ZM35.6667 11.6667C35.0478 11.6667 34.4543 11.4208 34.0168 10.9832C33.5792 10.5457 33.3333 9.95217 33.3333 9.33333C33.3333 8.7145 33.5792 8.121 34.0168 7.68342C34.4543 7.24583 35.0478 7 35.6667 7C36.2855 7 36.879 7.24583 37.3166 7.68342C37.7542 8.121 38 8.7145 38 9.33333C38 9.95217 37.7542 10.5457 37.3166 10.9832C36.879 11.4208 36.2855 11.6667 35.6667 11.6667Z" fill="#2D76F9"/>
</svg>
