<svg width="16" height="16" viewBox="0 0 16 16" fill="none" xmlns="http://www.w3.org/2000/svg">
<path opacity="0.5" d="M0.5 8C0.5 9.48336 0.939867 10.9334 1.76398 12.1668C2.58809 13.4001 3.75943 14.3614 5.12987 14.9291C6.50032 15.4968 8.00832 15.6453 9.46318 15.3559C10.918 15.0665 12.2544 14.3522 13.3033 13.3033C14.3522 12.2544 15.0665 10.918 15.3559 9.46318C15.6453 8.00832 15.4968 6.50032 14.9291 5.12987C14.3614 3.75943 13.4001 2.58809 12.1668 1.76398C10.9334 0.939867 9.48336 0.5 8 0.5C7.01509 0.5 6.03982 0.693993 5.12987 1.0709C4.21993 1.44781 3.39314 2.00026 2.6967 2.6967C1.29018 4.10322 0.5 6.01088 0.5 8ZM7.25 4.25C7.25 4.05109 7.32902 3.86032 7.46967 3.71967C7.61032 3.57902 7.80109 3.5 8 3.5C8.19891 3.5 8.38968 3.57902 8.53033 3.71967C8.67098 3.86032 8.75 4.05109 8.75 4.25V7.25H10.25C10.4489 7.25 10.6397 7.32902 10.7803 7.46967C10.921 7.61032 11 7.80109 11 8C11 8.19891 10.921 8.38968 10.7803 8.53033C10.6397 8.67098 10.4489 8.75 10.25 8.75H8C7.80109 8.75 7.61032 8.67098 7.46967 8.53033C7.32902 8.38968 7.25 8.19891 7.25 8V4.25Z" fill="#2D76F9"/>
</svg>
